<?xml version="1.0" standalone="no"?>
<!DOCTYPE svg PUBLIC "-//W3C//DTD SVG 20010904//EN"
 "http://www.w3.org/TR/2001/REC-SVG-20010904/DTD/svg10.dtd">
<svg version="1.0" xmlns="http://www.w3.org/2000/svg"
 width="420.000000pt" height="420.000000pt" viewBox="0 0 420.000000 420.000000"
 preserveAspectRatio="xMidYMid meet">
<metadata>
Created by potrace 1.14, written by Peter Selinger 2001-2017
</metadata>
<g transform="translate(0.000000,420.000000) scale(0.100000,-0.100000)"
fill="#000000" stroke="none">
<path d="M1798 3518 c-46 -12 -95 -65 -103 -112 -8 -41 24 -120 56 -137 10 -5
19 -16 19 -24 0 -15 -2 -16 -123 -44 -117 -28 -142 -41 -162 -89 -10 -23 -11
-23 -43 21 -17 25 -32 48 -32 51 0 3 -18 29 -40 58 -22 29 -40 56 -40 60 0 8
-18 31 -56 74 -42 48 -123 65 -307 66 -64 0 -105 -5 -134 -17 -24 -9 -43 -20
-44 -24 0 -3 -2 -15 -4 -26 -9 -42 52 -186 109 -260 59 -78 142 -157 204 -198
35 -23 66 -42 70 -42 4 0 12 -3 17 -7 8 -5 67 -23 105 -33 85 -21 85 -21 117
-23 20 -2 21 -7 20 -70 0 -42 5 -79 15 -98 8 -17 14 -37 12 -45 -3 -21 -17
-86 -30 -139 -13 -57 -17 -100 -17 -195 -1 -88 3 -110 30 -180 16 -45 33 -103
38 -130 4 -28 12 -61 19 -75 7 -14 11 -34 10 -45 -2 -11 -6 -70 -10 -131 -8
-132 1 -168 58 -230 42 -46 43 -54 22 -168 -2 -10 -6 -44 -10 -75 -3 -31 -8
-65 -10 -76 -4 -19 -9 -56 -20 -137 -3 -24 -7 -54 -9 -68 -3 -24 -12 -89 -21
-160 -5 -45 -14 -108 -19 -140 -2 -14 -7 -54 -10 -90 -4 -36 -8 -67 -10 -70
-1 -3 -6 -41 -10 -84 -4 -43 -8 -87 -10 -97 -2 -10 -6 -46 -10 -81 -7 -73 -14
-137 -21 -190 l-5 -38 453 0 453 0 2 123 c1 136 12 398 18 467 2 25 7 79 10
120 13 154 23 256 35 335 5 39 12 90 15 115 4 25 8 59 11 75 10 61 13 81 19
120 5 40 9 63 20 115 2 14 7 39 10 55 7 43 13 74 31 155 3 14 6 30 8 35 21 77
31 99 53 118 98 84 223 233 223 265 0 6 3 12 8 14 10 4 48 80 44 90 -1 4 2 8
7 8 5 0 12 17 16 38 5 20 10 44 12 52 1 8 3 41 4 73 1 52 4 61 35 92 25 26 43
35 67 35 35 0 87 -20 87 -32 0 -5 4 -8 10 -8 5 0 33 -14 62 -31 29 -17 54 -31
55 -31 2 1 24 -8 50 -19 78 -34 98 -42 103 -44 3 0 14 -6 25 -11 17 -10 69
-25 85 -26 3 0 14 -5 24 -10 34 -18 205 -19 281 -1 76 17 170 60 197 90 29 32
6 99 -61 176 -89 103 -229 230 -286 257 -65 31 -120 28 -310 -19 -88 -22 -184
-42 -214 -44 -76 -7 -133 16 -159 62 -11 20 -38 56 -60 81 -47 52 -54 76 -35
121 16 40 24 45 73 53 26 4 47 17 68 41 27 30 30 41 29 88 -2 39 -9 64 -27 90
-25 37 -83 75 -123 82 -12 2 -34 6 -49 9 -42 7 -104 -13 -137 -46 -27 -26 -30
-34 -27 -83 4 -60 1 -67 -32 -84 -21 -11 -28 -9 -67 21 -24 18 -53 40 -65 48
-12 8 -32 22 -44 31 -81 62 -203 87 -319 65 -35 -7 -36 -6 -28 21 31 111 -127
211 -271 171z"/>
</g>
</svg>
